<svg xmlns="http://www.w3.org/2000/svg" version="1.1" xmlns:xlink="http://www.w3.org/1999/xlink" xmlns:svgjs="http://svgjs.com/svgjs" width="1920" height="1080" preserveAspectRatio="none" viewBox="0 0 1920 1080"><g mask="url(&quot;#SvgjsMask1006&quot;)" fill="none"><path d="M1578.29 993.33 a286.42 286.42 0 1 0 572.84 0 a286.42 286.42 0 1 0 -572.84 0z" fill="rgba(66, 99, 235, 0.4)" class="triangle-float1"></path><path d="M420.01 1067.37 a302.81 302.81 0 1 0 605.62 0 a302.81 302.81 0 1 0 -605.62 0z" fill="rgba(66, 99, 235, 0.4)" class="triangle-float1"></path><path d="M1520.08 816.28 a299.68 299.68 0 1 0 599.36 0 a299.68 299.68 0 1 0 -599.36 0z" fill="rgba(66, 99, 235, 0.4)" class="triangle-float1"></path><path d="M586.0014885428926 923.9601278402747L874.6773235943224 918.9212723962446 869.6384681502923 630.245437344815 580.9626330988625 635.284292788845z" fill="rgba(66, 99, 235, 0.4)" class="triangle-float3"></path><path d="M920.6446440783003 907.6559769676626L869.4643517225122 1048.2726745362766 1105.9795442533273 1054.7347642856516z" fill="rgba(66, 99, 235, 0.4)" class="triangle-float1"></path><path d="M596.76 545.17 a259.91 259.91 0 1 0 519.82 0 a259.91 259.91 0 1 0 -519.82 0z" fill="rgba(66, 99, 235, 0.4)" class="triangle-float1"></path><path d="M329.461,967.416C360.722,967.064,392.301,957.456,409.058,931.063C426.988,902.822,429.161,866.167,411.962,837.475C395.184,809.485,362.094,798.201,329.461,798.272C296.972,798.343,264.593,810.155,247.578,837.832C229.791,866.764,228.558,904.179,246.7,932.889C263.814,959.972,297.426,967.776,329.461,967.416" fill="rgba(66, 99, 235, 0.4)" class="triangle-float3"></path><path d="M472.916185839538 1072.0412713672006L384.94046955768704 906.2019247310734 295.56235781388506 1043.8321475372588z" fill="rgba(66, 99, 235, 0.4)" class="triangle-float1"></path><path d="M867.44 484.31 a283.75 283.75 0 1 0 567.5 0 a283.75 283.75 0 1 0 -567.5 0z" fill="rgba(66, 99, 235, 0.4)" class="triangle-float3"></path><path d="M1689.1546091186717 401.5467167778749L1822.404911968676 549.53617072787 1977.7639414686664 275.66598947786576z" fill="rgba(66, 99, 235, 0.4)" class="triangle-float3"></path><path d="M1015.2068888624451 752.9781104014419L1200.1521466679521 670.6351764146477 1117.809212681158 485.68991860914076 932.863954875651 568.0328525959349z" fill="rgba(66, 99, 235, 0.4)" class="triangle-float2"></path><path d="M453.92611644025425 1150.0837203985077L734.74958567148 1120.5679844203055 705.2338496932779 839.7445151890797 424.41038046205205 869.2602511672819z" fill="rgba(66, 99, 235, 0.4)" class="triangle-float3"></path><path d="M989.5911109942242 384.8449915065511L1228.4678020011056 307.22924962747334 1150.8520601220278 68.35255862059205 911.9753691151465 145.96830049966977z" fill="rgba(66, 99, 235, 0.4)" class="triangle-float2"></path><path d="M120.89243094183283 1220.1414181712341L338.7221518258602 1118.5657511492461 237.14648480387223 900.7360302652189 19.316763919844888 1002.3116972872068z" fill="rgba(66, 99, 235, 0.4)" class="triangle-float3"></path><path d="M-251.69 401.99 a271.49 271.49 0 1 0 542.98 0 a271.49 271.49 0 1 0 -542.98 0z" fill="rgba(66, 99, 235, 0.4)" class="triangle-float3"></path><path d="M1007.64 1052.41 a271.29 271.29 0 1 0 542.58 0 a271.29 271.29 0 1 0 -542.58 0z" fill="rgba(66, 99, 235, 0.4)" class="triangle-float1"></path><path d="M1350.513,1270.575C1432.909,1276.721,1521.395,1246.64,1560.615,1173.916C1598.493,1103.681,1566.154,1019.998,1521.206,954.063C1482.527,897.324,1419.173,864.692,1350.513,865.712C1283.691,866.704,1221.811,901.14,1188.38,959.006C1154.932,1016.901,1157.624,1086.845,1188.489,1146.158C1222.179,1210.9,1277.732,1265.146,1350.513,1270.575" fill="rgba(66, 99, 235, 0.4)" class="triangle-float2"></path><path d="M276.95 317.23 a227.33 227.33 0 1 0 454.66 0 a227.33 227.33 0 1 0 -454.66 0z" fill="rgba(66, 99, 235, 0.4)" class="triangle-float2"></path><path d="M84.479,1049.241C115.935,1051.242,150.817,1043.134,166.006,1015.515C180.852,988.519,165.267,957.376,149.582,930.859C134.293,905.011,114.501,878.402,84.479,877.686C53.561,876.948,27.784,900.052,13.765,927.619C1.013,952.693,4.998,981.854,19.137,1006.172C33.191,1030.343,56.575,1047.466,84.479,1049.241" fill="rgba(66, 99, 235, 0.4)" class="triangle-float1"></path><path d="M1382.3265404533483 113.46877252140531L1460.3258754451745 280.7388862065197 1627.595989130289 202.7395512146935 1549.5966541384628 35.46943752957911z" fill="rgba(66, 99, 235, 0.4)" class="triangle-float1"></path></g><defs><mask id="SvgjsMask1006"><rect width="1920" height="1080" fill="#ffffff"></rect></mask><style>
            @keyframes float1 {
                0%{transform: translate(0, 0)}
                50%{transform: translate(-10px, 0)}
                100%{transform: translate(0, 0)}
            }

            .triangle-float1 {
                animation: float1 5s infinite;
            }

            @keyframes float2 {
                0%{transform: translate(0, 0)}
                50%{transform: translate(-5px, -5px)}
                100%{transform: translate(0, 0)}
            }

            .triangle-float2 {
                animation: float2 4s infinite;
            }

            @keyframes float3 {
                0%{transform: translate(0, 0)}
                50%{transform: translate(0, -10px)}
                100%{transform: translate(0, 0)}
            }

            .triangle-float3 {
                animation: float3 6s infinite;
            }
        </style></defs></svg>